<?xml version="1.0" encoding="utf-8"?>
<!-- Generator: Adobe Illustrator 22.0.1, SVG Export Plug-In . SVG Version: 6.00 Build 0)  -->
<svg version="1.1" id="Ebene_1" xmlns="http://www.w3.org/2000/svg" xmlns:xlink="http://www.w3.org/1999/xlink" x="0px" y="0px"
	 viewBox="0 0 212.6 113.4" style="enable-background:new 0 0 212.6 113.4;" xml:space="preserve">
<style type="text/css">
	.st0{fill:#1A213E;}
	.st1{fill:#457FC1;}
	.st2{fill:#85C8EE;}
	.st3{fill:#66A2D8;}
	.st4{fill:#243879;}
</style>
<path class="st0" d="M79.4,39.6c2.1-1.2,4.6-1.8,7.4-1.9v10.2c-0.4,0-0.9-0.1-1.7-0.1c-3.3,0-5.9,0.9-7.9,2.7
	c-1.9,1.8-2.9,4.2-2.9,7.2v18.2H63.5V38.1h10.8v6.8C75.6,42.6,77.3,40.8,79.4,39.6z"/>
<path class="st0" d="M103.7,23c1.1,1.1,1.6,2.6,1.6,4.3c0,1.8-0.5,3.2-1.6,4.3c-1.1,1.1-2.5,1.7-4.2,1.7c-1.7,0-3.1-0.6-4.2-1.7
	c-1.1-1.1-1.6-2.6-1.6-4.3c0-1.8,0.5-3.2,1.6-4.3c1.1-1.1,2.5-1.7,4.2-1.7C101.2,21.4,102.6,21.9,103.7,23z M94.1,38.1h10.8v37.7
	H94.1V38.1z"/>
<path class="st0" d="M133.8,46.5c-2-0.6-3.8-0.9-5.4-0.9c-1.3,0-2.4,0.2-3.2,0.7c-0.8,0.5-1.2,1.2-1.2,2.1c0,1,0.5,1.8,1.6,2.4
	c1.1,0.6,2.8,1.2,5.3,1.9c2.7,0.8,4.9,1.6,6.6,2.3c1.7,0.8,3.2,1.9,4.5,3.4c1.3,1.5,1.9,3.5,1.9,6c0,3.7-1.4,6.6-4.3,8.7
	c-2.9,2.1-6.6,3.1-11,3.1c-3.1,0-6.1-0.5-8.9-1.4c-2.9-0.9-5.3-2.2-7.4-3.9l3.5-7.3c1.9,1.5,4.1,2.7,6.4,3.5
	c2.4,0.8,4.6,1.2,6.7,1.2c1.4,0,2.6-0.2,3.5-0.7c0.9-0.5,1.3-1.2,1.3-2.2c0-1.1-0.5-1.9-1.6-2.5c-1.1-0.6-2.9-1.3-5.3-2
	c-2.6-0.7-4.7-1.5-6.4-2.2c-1.7-0.7-3.2-1.9-4.4-3.4c-1.2-1.5-1.8-3.5-1.8-5.9c0-3.7,1.4-6.6,4.2-8.7c2.8-2.1,6.4-3.1,10.7-3.1
	c2.6,0,5.1,0.4,7.7,1.1c2.6,0.7,4.9,1.8,7,3.1l-3.7,7.4C137.8,48,135.8,47.1,133.8,46.5z"/>
<path class="st0" d="M182.7,40.2c2.7,1.6,4.8,3.9,6.2,6.8c1.5,2.9,2.2,6.3,2.2,10.2c0,3.8-0.7,7.1-2.2,10c-1.4,2.9-3.5,5.1-6.1,6.7
	c-2.6,1.6-5.7,2.4-9.2,2.4c-2.6,0-4.9-0.5-7-1.5s-3.7-2.5-5.2-4.4v21.5h-10.8V38.1h10.8v5.5c1.4-1.9,3-3.4,5.1-4.4s4.3-1.5,6.8-1.5
	C176.9,37.8,180,38.6,182.7,40.2z M177.6,64.4c1.7-1.9,2.6-4.5,2.6-7.5c0-3-0.9-5.5-2.6-7.5c-1.7-1.9-4-2.9-6.7-2.9
	c-2.8,0-5,1-6.8,2.9c-1.8,1.9-2.6,4.4-2.6,7.5c0,3.1,0.9,5.7,2.6,7.6c1.8,1.9,4,2.9,6.8,2.9C173.7,67.3,175.9,66.3,177.6,64.4z"/>
<g>
	<path class="st1" d="M35.7,48.2l-3.9-8.1c-5.9,3-10,9-10.3,16l9,0C30.8,52.7,32.8,49.7,35.7,48.2z"/>
	<path class="st2" d="M48.7,51.4l7.7-4.6c-1.9-2.9-4.5-5.2-7.6-6.8l-3.7,8.2C46.6,49,47.8,50.1,48.7,51.4z"/>
	<path class="st0" d="M48.9,62.4c-1.8,2.8-4.9,4.7-8.5,4.7c-0.9,0-1.7-0.1-2.5-0.3l-2.8,8.5c1.7,0.5,3.5,0.8,5.3,0.8
		c6.9,0,12.9-3.7,16.2-9.1L48.9,62.4z"/>
	<path class="st3" d="M37,47.6c1.1-0.4,2.2-0.6,3.5-0.6c1.2,0,2.4,0.2,3.5,0.6l3.7-8.2C45.4,38.5,43,38,40.4,38
		c-2.6,0-5.1,0.5-7.4,1.5L37,47.6z"/>
	<path class="st4" d="M36.6,66.3c-3.5-1.4-6-4.8-6.2-8.9l-9,0c0.2,8,5.3,14.7,12.4,17.3L36.6,66.3z"/>
</g>
<path class="st0" d="M27.5,91.9L25.7,89c-0.2,0-0.4,0-0.5,0h-2.4v2.9h-1.3v-9.4h3.7c1.2,0,2.1,0.3,2.8,0.8c0.6,0.5,1,1.3,1,2.3
	c0,0.8-0.2,1.4-0.5,1.9c-0.4,0.5-0.9,0.9-1.5,1.1l2.2,3.2H27.5z M25.2,87.8c0.8,0,1.4-0.2,1.8-0.5c0.4-0.4,0.6-0.9,0.6-1.6
	c0-0.7-0.2-1.2-0.6-1.5c-0.4-0.3-1-0.5-1.8-0.5h-2.4v4.1H25.2z"/>
<path class="st0" d="M37.5,82.5H44v1.2h-5.2v2.9h4.7v1.2h-4.7v3h5.4v1.2h-6.7V82.5z"/>
<path class="st0" d="M57.7,83.9c-0.5-0.1-0.9-0.2-1.3-0.2c-0.5,0-1,0.1-1.3,0.3c-0.3,0.2-0.5,0.5-0.5,0.9c0,0.3,0.1,0.6,0.3,0.8
	c0.2,0.2,0.4,0.4,0.7,0.5c0.3,0.1,0.7,0.3,1.2,0.4c0.6,0.2,1.1,0.4,1.5,0.6c0.4,0.2,0.7,0.4,1,0.8c0.3,0.4,0.4,0.8,0.4,1.4
	c0,0.5-0.1,1-0.4,1.4c-0.3,0.4-0.7,0.7-1.2,0.9C57.6,91.9,57,92,56.3,92c-0.7,0-1.4-0.1-2-0.4c-0.7-0.3-1.2-0.6-1.7-1.1l0.6-1.1
	c0.4,0.4,0.9,0.8,1.5,1c0.6,0.2,1.1,0.4,1.6,0.4c0.6,0,1.1-0.1,1.5-0.4c0.4-0.2,0.5-0.6,0.5-1c0-0.3-0.1-0.6-0.3-0.8
	c-0.2-0.2-0.4-0.4-0.7-0.5c-0.3-0.1-0.7-0.3-1.2-0.4c-0.6-0.2-1.1-0.4-1.5-0.5c-0.4-0.2-0.7-0.4-1-0.8c-0.3-0.3-0.4-0.8-0.4-1.4
	c0-0.5,0.1-0.9,0.4-1.3c0.3-0.4,0.7-0.7,1.2-0.9c0.5-0.2,1.1-0.3,1.7-0.3c0.6,0,1.1,0.1,1.7,0.2c0.5,0.2,1,0.4,1.4,0.7L59,84.5
	C58.6,84.2,58.1,84,57.7,83.9z"/>
<path class="st0" d="M68.2,82.5h6.5v1.2h-5.2v2.9h4.7v1.2h-4.7v3h5.4v1.2h-6.7V82.5z"/>
<path class="st0" d="M91.6,91.9l-1-2.3h-4.9l-1,2.3h-1.4l4.2-9.4h1.3l4.2,9.4H91.6z M86.2,88.5h3.9l-2-4.6L86.2,88.5z"/>
<path class="st0" d="M107.5,91.9l-1.9-2.9c-0.2,0-0.4,0-0.5,0h-2.4v2.9h-1.3v-9.4h3.7c1.2,0,2.1,0.3,2.8,0.8c0.6,0.5,1,1.3,1,2.3
	c0,0.8-0.2,1.4-0.5,1.9c-0.4,0.5-0.9,0.9-1.5,1.1l2.2,3.2H107.5z M105.1,87.8c0.8,0,1.4-0.2,1.8-0.5c0.4-0.4,0.6-0.9,0.6-1.6
	c0-0.7-0.2-1.2-0.6-1.5c-0.4-0.3-1-0.5-1.8-0.5h-2.4v4.1H105.1z"/>
<path class="st0" d="M123.8,83.9c-0.5-0.2-1-0.3-1.5-0.3c-0.7,0-1.3,0.2-1.8,0.5c-0.6,0.3-1,0.8-1.3,1.3c-0.3,0.5-0.5,1.2-0.5,1.8
	c0,0.7,0.2,1.3,0.5,1.8c0.3,0.6,0.8,1,1.3,1.3c0.6,0.3,1.2,0.5,1.8,0.5c0.5,0,1-0.1,1.4-0.3c0.5-0.2,0.9-0.5,1.3-0.8l0.8,0.8
	c-0.5,0.5-1,0.8-1.6,1.1c-0.6,0.3-1.3,0.4-1.9,0.4c-0.9,0-1.7-0.2-2.5-0.6c-0.7-0.4-1.3-1-1.8-1.7c-0.4-0.7-0.6-1.5-0.6-2.4
	c0-0.9,0.2-1.7,0.6-2.4c0.4-0.7,1-1.3,1.8-1.7s1.6-0.6,2.5-0.6c0.7,0,1.3,0.1,1.9,0.4c0.6,0.2,1.1,0.6,1.6,1l-0.8,0.9
	C124.7,84.4,124.3,84.1,123.8,83.9z"/>
<path class="st0" d="M134.3,82.5h1.3v4.2h5.4v-4.2h1.3v9.4h-1.3v-4h-5.4v4h-1.3V82.5z"/>
<g>
</g>
</svg>
